<svg width="16" height="16" viewBox="0 0 16 16" fill="none" xmlns="http://www.w3.org/2000/svg"> 
 <g id="manageDataSources"> 
  <g id="Vector"> 
   <path d="M10.8249 12.3242C11.9035 12.7129 13.1571 12.4751 14.0215 11.6107C14.9276 10.7046 15.1452 9.37057 14.6742 8.25895L12.4561 10.4771L10.8366 8.85772L13.0548 6.63954C11.9432 6.16855 10.6092 6.38614 9.70307 7.2923C8.8387 8.15667 8.60085 9.41031 8.98954 10.4889L5.31378 14.1647L7.14911 16L10.8249 12.3242Z" fill="#6E6E6E" /> 
   <path d="M5.5 5.27523C8.53757 5.27523 11 4.54204 11 3.63761C11 2.73319 8.53757 2 5.5 2C2.46243 2 0 2.73319 0 3.63761C0 4.54204 2.46243 5.27523 5.5 5.27523Z" fill="#6E6E6E" /> 
   <path d="M9.61896 5.79475C8.48116 6.15343 7.052 6.36697 5.5 6.36697C3.22647 6.36697 1.21656 5.90871 0 5.20728V6.47615C0 7.38058 2.46243 8.11376 5.5 8.11376C6.16794 8.11376 6.80807 8.07831 7.40033 8.01338L9.61896 5.79475Z" fill="#6E6E6E" /> 
   <path d="M3.49335 11.9204L1.91051 13.5032C0.740602 13.2029 0 12.7584 0 12.2624V10.8843C0.842565 11.3701 2.06568 11.7393 3.49335 11.9204Z" fill="#6E6E6E" /> 
   <path d="M6.22384 9.18987L4.48774 10.926C1.93369 10.7914 0 10.1569 0 9.39456V8.04581C1.21656 8.74725 3.22647 9.2055 5.5 9.2055C5.74455 9.2055 5.98605 9.2002 6.22384 9.18987Z" fill="#6E6E6E" /> 
  </g> 
 </g> 
</svg>